<?xml version="1.0" encoding="utf-8"?>
<!-- Generator: Adobe Illustrator 22.1.0, SVG Export Plug-In . SVG Version: 6.00 Build 0)  -->
<svg version="1.1" id="Layer_1" xmlns="http://www.w3.org/2000/svg" xmlns:xlink="http://www.w3.org/1999/xlink" x="0px" y="0px"
	 viewBox="0 0 33.3 33.3" style="enable-background:new 0 0 33.3 33.3;" xml:space="preserve">
<style type="text/css">
	.st0{fill:#FFFFFF;}
</style>
<g>
	<path class="st0" d="M13.7,15.7c1.7-0.8,2.6-2.1,2.6-4c0-3.8-2.8-4.7-6.1-4.7h-9V26h9.2c3.5,0,6.7-1.7,6.7-5.5
		C17.1,18.1,16,16.3,13.7,15.7L13.7,15.7z M5.4,10.2h3.9c1.5,0,2.9,0.4,2.9,2.2c0,1.6-1.1,2.3-2.6,2.3H5.4L5.4,10.2z M9.8,22.8H5.4
		v-5.2h4.6c1.8,0,3,0.8,3,2.7C12.9,22.2,11.6,22.8,9.8,22.8L9.8,22.8z M29.1,9.8h-7.7V8h7.7V9.8L29.1,9.8z M32.2,19.3
		c0-4.1-2.4-7.5-6.7-7.5c-4.2,0-7.1,3.2-7.1,7.3c0,4.3,2.7,7.2,7.1,7.2c3.3,0,5.4-1.5,6.5-4.6h-3.3c-0.4,1.2-1.8,1.8-3,1.8
		c-2.2,0-3.4-1.3-3.4-3.5h10C32.1,19.8,32.2,19.6,32.2,19.3z M22.2,17.6c0.1-1.8,1.3-2.9,3.1-2.9c1.9,0,2.9,1.1,3,2.9H22.2z"/>
</g>
</svg>
