<?xml version="1.0" encoding="utf-8"?>
<!-- Generator: Adobe Illustrator 22.1.0, SVG Export Plug-In . SVG Version: 6.00 Build 0)  -->
<svg version="1.1" id="Layer_1" xmlns="http://www.w3.org/2000/svg" xmlns:xlink="http://www.w3.org/1999/xlink" x="0px" y="0px"
	 viewBox="0 0 33.3 33.3" style="enable-background:new 0 0 33.3 33.3;" xml:space="preserve">
<style type="text/css">
	.st0{fill:#FFFFFF;}
</style>
<g>
	<path class="st0" d="M12.3,24.6c0,0.1-0.1,0.2-0.3,0.2c-0.2,0-0.3-0.1-0.3-0.2c0-0.1,0.1-0.2,0.3-0.2
		C12.1,24.4,12.3,24.5,12.3,24.6z M10.6,24.4c0,0.1,0.1,0.2,0.2,0.3c0.1,0.1,0.3,0,0.3-0.1s-0.1-0.2-0.2-0.3
		C10.8,24.2,10.6,24.3,10.6,24.4L10.6,24.4z M13,24.3c-0.2,0-0.3,0.1-0.2,0.3c0,0.1,0.2,0.2,0.3,0.1c0.2,0,0.3-0.1,0.2-0.2
		C13.3,24.3,13.1,24.3,13,24.3z M16.5,3.7C9,3.7,3.3,9.3,3.3,16.8c0,6,3.8,11.1,9.1,12.9c0.7,0.1,0.9-0.3,0.9-0.7c0-0.3,0-2.2,0-3.3
		c0,0-3.8,0.8-4.6-1.6c0,0-0.6-1.6-1.5-2c0,0-1.2-0.8,0.1-0.8c0,0,1.3,0.1,2.1,1.4c1.2,2.1,3.2,1.5,3.9,1.1c0.1-0.9,0.5-1.5,0.9-1.8
		c-3-0.3-6-0.8-6-5.9c0-1.5,0.4-2.2,1.3-3.2c-0.1-0.3-0.6-1.8,0.1-3.7c1.1-0.3,3.7,1.5,3.7,1.5c1.1-0.3,2.2-0.5,3.4-0.5
		s2.3,0.2,3.4,0.5c0,0,2.6-1.8,3.7-1.5c0.7,1.9,0.3,3.3,0.1,3.7c0.9,1,1.4,1.7,1.4,3.2c0,5.2-3.2,5.6-6.2,5.9
		c0.5,0.4,0.9,1.2,0.9,2.5c0,1.8,0,4.1,0,4.5c0,0.3,0.2,0.8,0.9,0.7c5.4-1.8,9-6.9,9-12.9C30,9.3,24,3.7,16.5,3.7z M8.6,22.2
		c-0.1,0.1-0.1,0.2,0,0.3c0.1,0.1,0.2,0.1,0.3,0.1c0.1-0.1,0.1-0.2,0-0.3C8.7,22.2,8.6,22.1,8.6,22.2z M8,21.8c0,0.1,0,0.2,0.1,0.2
		c0.1,0.1,0.2,0,0.2,0c0-0.1,0-0.2-0.1-0.2C8.1,21.7,8,21.7,8,21.8z M9.7,23.7c-0.1,0.1-0.1,0.2,0.1,0.3c0.1,0.1,0.3,0.1,0.3,0.1
		c0.1-0.1,0-0.2-0.1-0.3C9.9,23.6,9.8,23.6,9.7,23.7z M9.1,22.9C9,23,9,23.1,9.1,23.2c0.1,0.1,0.2,0.2,0.3,0.1
		c0.1-0.1,0.1-0.2,0-0.3C9.3,22.9,9.2,22.8,9.1,22.9L9.1,22.9z"/>
</g>
</svg>
