<?xml version="1.0" encoding="utf-8"?>
<!-- Generator: Adobe Illustrator 22.1.0, SVG Export Plug-In . SVG Version: 6.00 Build 0)  -->
<svg version="1.1" id="Layer_1" xmlns="http://www.w3.org/2000/svg" xmlns:xlink="http://www.w3.org/1999/xlink" x="0px" y="0px"
	 viewBox="0 0 33.3 33.3" style="enable-background:new 0 0 33.3 33.3;" xml:space="preserve">
<style type="text/css">
	.st0{fill:#FFFFFF;}
</style>
<g>
	<path class="st0" d="M10,28.7l-5,0l0-16.1l5,0L10,28.7z M7.5,10.4c-1.6,0-2.9-1.3-2.9-2.9c0-1.6,1.3-2.9,2.9-2.9
		c1.6,0,2.9,1.3,2.9,2.9C10.4,9.1,9.1,10.4,7.5,10.4z M28.7,28.7l-5,0l0-7.8c0-1.9,0-4.3-2.6-4.3c-2.6,0-3,2-3,4.1l0,8l-5,0l0-16.1
		l4.8,0l0,2.2l0.1,0c0.7-1.3,2.3-2.6,4.7-2.6c5.1,0,6,3.3,6,7.7L28.7,28.7L28.7,28.7z"/>
</g>
</svg>
