<?xml version="1.0" encoding="utf-8"?>
<!-- Generator: Adobe Illustrator 22.1.0, SVG Export Plug-In . SVG Version: 6.00 Build 0)  -->
<svg version="1.1" id="Layer_1" xmlns="http://www.w3.org/2000/svg" xmlns:xlink="http://www.w3.org/1999/xlink" x="0px" y="0px"
	 viewBox="0 0 33.3 33.3" style="enable-background:new 0 0 33.3 33.3;" xml:space="preserve">
<style type="text/css">
	.st0{fill:#FFFFFF;}
</style>
<g>
	<path class="st0" d="M27.6,11.1c0,0.2,0,0.5,0,0.7c0,7.5-5.7,16.1-16.1,16.1c-3.2,0-6.2-0.9-8.7-2.5c0.5,0.1,0.9,0.1,1.4,0.1
		c2.6,0,5.1-0.9,7-2.4c-2.5-0.1-4.6-1.7-5.3-3.9c0.3,0.1,0.7,0.1,1.1,0.1c0.5,0,1-0.1,1.5-0.2C6,18.4,4,16.2,4,13.4v-0.1
		c0.8,0.4,1.6,0.7,2.6,0.7C5,13,4.1,11.3,4.1,9.4c0-1,0.3-2,0.8-2.8c2.8,3.4,7,5.7,11.6,5.9c-0.1-0.4-0.1-0.9-0.1-1.3
		c0-3.1,2.5-5.6,5.6-5.6c1.6,0,3.1,0.7,4.1,1.8c1.3-0.2,2.5-0.7,3.6-1.4c-0.4,1.3-1.3,2.4-2.5,3.1c1.1-0.1,2.2-0.4,3.3-0.9
		C29.7,9.3,28.7,10.3,27.6,11.1L27.6,11.1z"/>
</g>
</svg>
