<?xml version="1.0" encoding="utf-8"?>
<!-- Generator: Adobe Illustrator 22.1.0, SVG Export Plug-In . SVG Version: 6.00 Build 0)  -->
<svg version="1.1" id="Layer_1" xmlns="http://www.w3.org/2000/svg" xmlns:xlink="http://www.w3.org/1999/xlink" x="0px" y="0px"
	 viewBox="0 0 225.4 14.1" style="enable-background:new 0 0 225.4 14.1;" xml:space="preserve">
<style type="text/css">
	.st0{fill:#CCCCCC;}
</style>
<g>
	<path class="st0" d="M213.2,5.2c0.3,0,0.2-0.3,0.2-0.3C213,4.9,213.2,5.3,213.2,5.2z"/>
	<polygon class="st0" points="208.3,5.8 208.4,5.7 207.7,6 	"/>
	<path class="st0" d="M203.7,5.8c0.4,0.5,1.7-0.1,2.5,0.1l0.1,0.1l0.4-0.4C205.7,5.7,204.4,5.9,203.7,5.8z"/>
	<path class="st0" d="M201.3,4.7c0.1,0.2-0.5,0.2,0.6,0.1c-0.1,0-0.1,0-0.1,0C201.7,4.7,201.5,4.7,201.3,4.7z"/>
	<path class="st0" d="M201.8,4.7C202.3,4.7,201.5,4.6,201.8,4.7L201.8,4.7z"/>
	<path class="st0" d="M199.5,4.8l0.6-0.2c-0.1-0.1-0.7-0.1-0.5-0.2C199,4.5,199.2,4.6,199.5,4.8z"/>
	<path class="st0" d="M198.9,5.2l0.3-0.1C199.2,5,199.1,5,198.9,5.2z"/>
	<path class="st0" d="M200,4.9l-0.7,0.1c0.1,0.1,0.1,0.2,0.3-0.1C199.5,5.2,199.7,5,200,4.9z"/>
	<path class="st0" d="M200.4,5c0.4,0.1,0.8,0.2,0.2,0.3C201.8,5.3,201.6,5,200.4,5z"/>
	<path class="st0" d="M203.5,6.3l0.5,0.1l0.4-0.2C204.2,6.3,203.5,6.1,203.5,6.3z"/>
	<path class="st0" d="M195.6,4.5c0,0.1,0.2,0.3,0.3,0.4l0.5-0.1C196.1,4.8,195.6,4.7,195.6,4.5z"/>
	<path class="st0" d="M195.8,4.9l-0.7,0.2C195.8,5.1,195.9,5.1,195.8,4.9z"/>
	<polygon class="st0" points="198.8,5.7 200,5.3 198.6,5.7 	"/>
	<polygon class="st0" points="192.9,4.5 193.3,4.3 192.6,4.6 	"/>
	<path class="st0" d="M191.1,4.5c0.3-0.2-0.4-0.3-0.1-0.5c-0.5,0-0.9,0.2-1.3,0.4C190.1,4.3,190.6,4.4,191.1,4.5z"/>
	<path class="st0" d="M189.1,4.6c0.2,0,0.4-0.1,0.6-0.2C189.5,4.5,189.3,4.5,189.1,4.6z"/>
	<path class="st0" d="M193.9,5.1c-0.1-0.1-0.2-0.2-0.5-0.3l0.3,0.3C193.7,5,193.8,5.1,193.9,5.1z"/>
	<path class="st0" d="M193.7,5.1L193.7,5.1c-0.3,0-0.5,0-0.6,0C193.1,5,193.3,5,193.7,5.1z"/>
	<path class="st0" d="M194,5.1C194,5.1,194,5.1,194,5.1C194,5.1,194,5.1,194,5.1z"/>
	<path class="st0" d="M197,5.4c-0.4,0.2-1.3,0.3-0.4,0.6C196.8,5.8,196.3,5.7,197,5.4z"/>
	<path class="st0" d="M194.3,5.4l0.7,0.1c0-0.1-0.1-0.2,0.1-0.3L194.3,5.4z"/>
	<polygon class="st0" points="194,5.5 194.3,5.4 194.1,5.4 	"/>
	<path class="st0" d="M190.4,4.9c-0.3,0.1-0.7,0.1-1.1,0.2c0.4,0.1,0.9,0.1,1.3,0.1C190.7,5.1,190.9,4.9,190.4,4.9z"/>
	<path class="st0" d="M192,5C192,5,191.9,5,192,5C192,5.1,192,5.1,192,5z"/>
	<path class="st0" d="M185.4,5C185.4,5.1,185.4,5.1,185.4,5C185.5,5.1,185.5,5.1,185.4,5L185.4,5z"/>
	<path class="st0" d="M190.7,5.2c0.3,0.1,0.5,0,0.7-0.1C191.1,5.2,190.9,5.2,190.7,5.2C190.6,5.2,190.6,5.2,190.7,5.2z"/>
	<path class="st0" d="M188,4.8c0.2,0.1,0.4,0.1,0.6,0.2C188.4,4.8,188.1,4.7,188,4.8z"/>
	<path class="st0" d="M191.8,4.9C191.8,4.9,191.8,4.9,191.8,4.9C191.8,4.9,191.8,4.9,191.8,4.9z"/>
	<path class="st0" d="M191.8,4.9c-0.2,0-0.3,0.1-0.4,0.2c0.2,0,0.4-0.1,0.5-0.1C191.9,5,191.8,5,191.8,4.9z"/>
	<path class="st0" d="M184.2,6.9c0.1-0.3,0.9-0.5,1.6-0.2c0.7-0.2,0.3-1.1-0.4-1.6c0,0.1,0,0.2-0.8,0.4c0.3,0.1,1.6,0.4,1,0.6
		c-1,0.1-0.8-0.1-1.3-0.2c0.4,0.3-1.3,0.5-1,1l0.9-0.2C184.3,6.7,183.9,6.8,184.2,6.9z"/>
	<path class="st0" d="M186.9,5.1l0.3,0c-0.3,0-0.6-0.2-1-0.4c-0.5,0.1-0.6,0.2-0.6,0.3l1.5,0L186.9,5.1z"/>
	<path class="st0" d="M188.5,5.1c-0.2,0.3-1,0.4-0.5,0.7c0.9,0,0.6-0.2,1.2-0.4C187.7,5.5,189.6,5.3,188.5,5.1c0.3,0,0.5,0,0.8,0
		c-0.3,0-0.5-0.1-0.7-0.1c0,0,0,0,0,0l0,0c0,0,0,0,0,0c0.1,0,0.1,0.1,0,0c0,0,0,0,0,0C188.6,5,188.6,5.1,188.5,5.1
		C188.1,5,188.5,5,188.6,5c0,0,0,0,0,0c0,0,0,0,0,0l-1.4,0.2C187.5,5.1,187.9,5.1,188.5,5.1z"/>
	<path class="st0" d="M195.7,6.6C195.7,6.6,195.7,6.6,195.7,6.6C195.6,6.6,195.6,6.6,195.7,6.6z"/>
	<path class="st0" d="M195.2,6.5c0.1,0,0.2-0.2,0.5-0.1c0.3,0.1,0,0.1,0,0.2c0.2-0.1,0.7-0.2,0.1-0.4l-0.1,0
		c-0.6-0.1-1.3-0.5-1.2-0.5C194.6,6,194.8,6.2,195.2,6.5z"/>
	<path class="st0" d="M191.8,5.9L190.6,6l0.6,0.3l0-0.2C191.9,6.2,191.7,6,191.8,5.9z"/>
	<polygon class="st0" points="185.3,4.9 185.4,4.6 184.7,5 	"/>
	<polygon class="st0" points="183.7,4.9 183.8,4.7 183.4,4.8 	"/>
	<path class="st0" d="M95.7,7.7l-0.4,0.1C95.5,7.8,95.6,7.7,95.7,7.7z"/>
	<path class="st0" d="M98.2,7.7l0.1-0.1C98.2,7.7,98.1,7.7,98.2,7.7z"/>
	<path class="st0" d="M145.4,4.7c-0.5-0.3-1.1-0.6-1-0.3l0.2,0.3C144.9,4.6,145.2,4.6,145.4,4.7z"/>
	<path class="st0" d="M119.2,6.3c0,0,0.1,0.1,0.1,0.1c0.1-0.1,0.2-0.2,0.4-0.3C119.5,6.2,119.3,6.2,119.2,6.3z"/>
	<path class="st0" d="M118.8,7.5l-0.7-0.2C118.3,7.4,118.5,7.5,118.8,7.5z"/>
	<path class="st0" d="M81.7,7.9l-0.4,0.3C82,8.2,81.7,8.1,81.7,7.9z"/>
	<path class="st0" d="M167.7,4.9c-0.4-0.1-0.8-0.2-1.1-0.2C167.2,4.9,167.6,5.2,167.7,4.9z"/>
	<path class="st0" d="M96.7,4.6c-0.2,0.1-0.3,0.1-0.3,0.2C96.6,4.7,96.8,4.7,96.7,4.6z"/>
	<path class="st0" d="M165.4,4.7c0.1,0,0.2,0,0.2,0.1c0.3,0,0.7-0.1,1-0.1C166.2,4.6,165.8,4.5,165.4,4.7z"/>
	<path class="st0" d="M31.2,7.4c0,0-0.1,0-0.1,0C31.1,7.4,31.1,7.4,31.2,7.4z"/>
	<path class="st0" d="M16.5,4.3c0.1,0,0.4,0,0.6,0C17,4.3,16.8,4.3,16.5,4.3z"/>
	<path class="st0" d="M177.4,4.8C177.8,4.7,177.5,4.7,177.4,4.8L177.4,4.8z"/>
	<path class="st0" d="M179,5.9c-0.1,0-0.1,0.1-0.1,0.1C178.9,6,179,6,179,5.9z"/>
	<path class="st0" d="M162,6.6C162,6.6,162,6.6,162,6.6C162.1,6.6,162.1,6.6,162,6.6z"/>
	<path class="st0" d="M177.9,4.9c-0.1,0-0.3-0.1-0.4-0.1C177.6,4.8,177.7,4.9,177.9,4.9z"/>
	<path class="st0" d="M177.9,4.8c0.1,0,0.2,0,0.3,0C178.2,4.7,178.2,4.7,177.9,4.8z"/>
	<path class="st0" d="M177,4.8c0.2,0,0.4,0,0.5,0c-0.1,0-0.1,0-0.1,0C177.3,4.8,177.2,4.8,177,4.8z"/>
	<path class="st0" d="M58.3,6.8C58.3,6.7,58.2,6.7,58.3,6.8C57.9,6.8,58,6.8,58.3,6.8z"/>
	<path class="st0" d="M136.8,7.7C136.8,7.7,136.8,7.7,136.8,7.7C136.8,7.7,136.8,7.7,136.8,7.7L136.8,7.7z"/>
	<path class="st0" d="M135.6,7.9c0.5-0.4,0.8-0.3,1.2-0.2l-0.4-0.9L135.6,7.9z"/>
	<path class="st0" d="M89.6,7.8L90.4,8c-1,0.4-1.7,0.3-1,0.7c0.1-0.9,3.2-0.1,3.4-1l0.5,0.2c-0.2,0-0.2,0-0.3,0
		c1.1,0.5,0.8-0.7,2.2-0.5c0.5,0.1,0.8,0.2,0.5,0.3l1.1-0.2c0.3,0,0.2,0.2-0.1,0.2l1.6-0.1l0,0c0.2-0.1,0.8-0.4,1-0.5
		c0.4,0.1-0.2,0.1-0.1,0.2l0.9-0.2c0.4,0.2-0.4,0.5-1,0.4c0.8,0.9,0.8-0.2,2.6,0.3L100.8,8c0.5,0.5,1.2,0.3,2.2,0.7
		c-0.2-0.2-1.9-0.8-0.9-1.1c0.3,0.1,0.6,0.1,1.2-0.1c0,0.3,0.5,0.3,1.2,0.2l-0.1,0.4c0.7-0.1,0.6-0.3,1.1-0.5c0.8,0,0.9,0.4,1.1,0.7
		c1.2,0.1-0.9-0.5,0.6-0.6c1,0.2,1.8,0,3-0.3c0.7,0.2-0.1,0.3,0.1,0.4l0.6-0.3c0.2,0,0.1,0.1,0.1,0.2c0.5-0.1,0.1-0.4,0.9-0.5
		c0.2-0.5,1.7,0.7,2.8,0.2c0.3,0.1-0.1,0.3-0.1,0.4c1.5-0.3,1.2-0.3,2.4-0.7l1,0.3c-0.7-0.3,0.2-0.7,1.1-1c-0.3-0.2-0.5-0.3-0.6-0.4
		l1.3-0.2c0.2,0.1,0,0.2-0.2,0.4c0.1,0,0.2-0.1,0.2-0.1c0.5,0.2,0.2,0.4-0.1,0.7c-0.2-0.1-0.3-0.2-0.5-0.3c-0.3,0.3-0.6,0.6-0.6,0.8
		c0.1,0,0.3-0.1,0.4-0.1c-0.1,0.1-0.1,0.1-0.1,0.2c0,0,0.2,0,0.4-0.2l0.3,0.5l0.1-0.2l1.7,0.3c1.3-0.5,2.3-1.2,4.3-1.4
		c-0.5,0.4-0.1,0.6-0.1,1c-0.5-0.5-1.5,0.2-2.6,0.1c0.5,0.1,0.4,0.3,0.3,0.3l1.8-0.4c0,0.3,0.4,0.3,0.9,0.4
		c-0.4-0.7,1.4-0.4,2.1-0.7c0,0.2-0.1,0.5-1,0.4c1,0.5,1.3-0.8,2.3-0.4c-0.2,0-0.3,0-0.4,0.1c0.5-0.2,1.8,0,1.5,0.2l-0.2,0
		c1.5,0.1,4.5,0,4.7-0.5c0,0.1-0.2,0.7-0.3,0.8l2.6-1.9c-0.2,0.5,0.6,1.7-0.6,2c0.3,0.1,0.8,0.2,1.5,0c-0.2-0.1-0.6-0.7-0.3-0.8
		c0.9,0.6,0.6,0.3,1.7,0.8c-0.4-0.1,0.1-0.9,0.6-0.9c-0.1,0.1,0,0.8-0.2,0.9l1.4-0.8c-0.4,0.1-0.1,0.6,0.2,0.9
		c-0.1-0.2,1.2,0,1.6-0.1l-0.6-0.2c1.6,0.1,1.6-1.1,3.2-1c-0.2,0.2-0.5,1,0.3,1.1c0.4-0.4,1.7-1.9,3-2.2l0.3,0.2l1.1-0.2
		c-0.7,0.6-2.6,1.8-3.6,2.3c0.6,0.2,0.2,0.3,1.1,0.3c0.3,0.2-0.5,0.3-0.8,0.3l2.1,0.1C149.4,8,151.1,8,151,7.6l-2.3,0.5
		c-0.1-0.5,1.3-1.3,2.8-1.2c0.4,0.2-0.3,0.8-0.3,1c0.2-0.2,1.4-0.3,1.5-0.2l-0.6,0.2c0.8,0.2,1.3-0.6,2.3-0.2c0.3,0,1,0.6,1.1,0.3
		c-0.5-0.5-0.6-2.1-0.3-2.5c0.1,0,1.8,0.5,2.2,0.8c0.6,0.4-0.9,1-0.4,1.3c0-0.1,0.3-0.3,0.5-0.3c0.4,0.1-0.2,0.4,0.6,0.3
		c0.1-0.5,1.6,0,0.4-0.4c0.8-0.1,0.8,0.1,1.7,0.1c-0.3-0.3,0.8-1,1.6-1.1c0,0.1,0.1,0.3,0.2,0.3c1.6,0.1,2.4,0.3,3.8,0.3
		c0.1,0.1,0.8,0.3,0.5,0.5c0.2-0.1,0.4-0.2,0.8-0.2c0.9,0.4-1,0.1-0.3,0.5c0.1-0.3,1.2-0.4,1.8-0.5c-0.2-0.4-1.5-0.1-2.1,0.1
		c0-0.6,1.1-1.2,2.6-1.4c1.2-0.1,0.5,0.4,0.7,0.3c2.3,0.1,1.9-1,3.8-0.6c0.7,0.4,0,0.7,0.2,1c-1,0.1-1.5-0.2-2.2-0.2l0.8,0.2
		c-0.3,0.1-1,0.2-1.3,0.1c0.6,0.3,3.8,0.1,5.5,0.4c0.3-0.1,0.8-0.2,0.6-0.4l-0.6,0c-0.5-0.3,1-0.4,0.3-0.5c0.7-0.2,1.6-0.5,2.6-0.4
		l0.2,0.4c0-0.1-0.7-0.3-1-0.1c0.4-0.2,1.6,0.6,2.1,0l-0.7-0.3c0.7-0.2,1.7-0.6,2.6-0.5c-0.4-0.4-0.2,0-0.9-0.4
		c0.6,0.6-2.4,0-1.5,0.6c-0.7-0.6-1.2-0.2-2-0.7c0,0.1,0.3,0.3-0.5,0.2c0,0-0.1,0.1-0.2,0.1c0,0,0,0-0.1,0c0,0,0,0,0,0c0,0,0,0,0,0
		c0.2,0.1,0.3,0.1,0.4,0.2c-0.4,0.3-1.6,0.3-2,0.5c-0.5-0.1,0.2-0.2-0.1-0.3l-0.6,0.2c-0.1-0.3-1.2-0.5-0.1-0.7l-1,0
		c-0.6-0.2-1.4-0.2-1.8-0.1c-0.5-0.1-1.2,0.3-0.8,0.1L170.4,5l0-0.1c-1.5,0-3.1,0.5-4.8-0.1c-0.5,0.1-1,0.2-1.9,0.1l-0.2-0.3
		c-0.7,0.1-2-0.3-2.2,0c-0.7-0.7-3.2-0.2-4.3-0.3l0,0.3c-0.8,0-1.5,0.1-2.5,0.2l0.1,0.3c-0.8,0.2-2.2-0.2-3.5-0.2
		c0.1-0.1,0.4-0.1,0.7,0c-1.6-0.7-3.4,0.5-4.8,0c-0.4,0.1-0.6,0.1-0.9,0c0,0,0.1,0,0.1,0c0,0-0.1,0-0.1,0c-0.2-0.1-0.3-0.1-0.5-0.2
		c0.1,0.1,0.3,0.1,0.4,0.2c-0.3,0-0.7,0-1.1,0.1l-0.2-0.3c0,0-0.1,0-0.1,0c-0.4-0.1-0.3,0.2-0.1,0.4c-0.2,0.1-0.4,0.1-0.5,0.2
		c-0.3-0.5-1.1,0.2-1.5-0.4c-0.3,0.3-2.1,0.2-2.3,0.8c0-0.1-0.1-0.1,0.1-0.1c-0.5-0.1-0.9-0.1-1.3,0l-0.2-0.4l-1,0.6
		c-0.6-0.3-0.9-0.4-0.2-0.7c-1.5,0.5-1.2,0.2-2.4,0.7l0.1-0.3c-0.4,0-1.2,0.4-1.4,0.1c-1-0.5-4.9-0.1-7.5-0.6
		c0.5,0.8-1.2-0.4-1.3,0.3c-0.1-0.2-0.5-0.3-0.1-0.5c-1.3,0.2-2-0.3-2.9,0.2c-0.1-0.2,0.3-0.3,0.2-0.4c-0.1,0-0.4,0.2-0.6,0
		c-0.1-0.1,0.2-0.2,0.4-0.2c-1.3,0-1.5,0.6-1.6,1.1c-0.7-0.3-1-0.2-1.5,0.1c-0.2-0.2-0.6-0.4,0.2-0.4c-0.5,0-2.8-0.3-2.9,0.2
		c-0.1-0.1-0.7,0-0.8,0c-1,0-1.1-0.1-2.2,0l0.3,0.1c-0.4,0.5-0.9,0.1-1.7,0.2l0-0.1c-1.9-0.4-0.8,0.2-2.7-0.3l0.1,0.3
		c-0.2,0.7-1.7-0.4-2.7-0.2l0.4,0.2c-0.6,0.2-1.6-1-2.2-1.1c-0.1-0.1,0.2-0.1,0.4-0.1c-1.6-0.4-0.2,0.4-1.4,0.5
		c-0.2-0.2,0.3-0.6-0.5-0.6c-0.4-0.2-2.3,0.7-3.3,0.3c0.2,0.2,0.5,0.4-0.1,0.5c-0.8,0.1-2.2-0.7-3-0.1c-0.1,0-0.1-0.1-0.1-0.1
		C95.8,4.9,94.4,5,94,5.3c-0.6-1.1-3.9,0.5-3.9-0.5l-1.9,0l0.1-0.1c-1.2-0.1-1.7,0.2-2.1,0.4C85.8,5.1,86,5,86,4.9
		c-1.8-0.2-2-0.2-3.5,0.3l-0.2-0.3c-0.4,0.2-2.6-0.5-4.4-0.2c0,0,0.1-0.1,0.2-0.2c-2,0.4-4.8-1-5.5,0.3l-1.3,0.3
		c1.7,0.1-0.3,0.5,0.4,0.7c-0.7,0.1-1.7-0.4-0.9-0.4l0.1,0.1c0.3-0.6-2.1-0.2-2.1-0.7c-3.4,0-6.7-0.4-9.8-0.4l0.4,0.5l-1.1,0
		c-0.3-0.1-0.4-0.4,0.4-0.4c-0.4-0.3-1.3,0.2-1.3,0.3c-1.5-0.2,0.6-0.6,0.1-0.6l-0.6,0L57,4.3c-0.5,0.2-0.6,0.4-1.5,0.4
		c-0.6-0.1-0.3-0.3-0.5-0.3c0,0-0.1-0.1-0.4,0l-1.4-0.1l0.5,0.4c-0.6,0.2-1.3,0-0.7,0.4c-0.9-0.7-5.2-0.3-5.7-0.5
		c-0.9,0.3-1.7,0.3-2.8,0.2C44.8,5,44.9,5.4,44,5.3c0.3-0.9-1.7-0.4-2.4-1.1c0.7,0.4-2.6,0.1-1.6,0.7c-0.8-0.1,0-0.3-0.6-0.6
		c-1.8,0.3-4-0.3-6.2-0.1c0,0.1,0.3,0.3-0.1,0.5L32,4.2c-0.4,0.1-0.4,0.7-1.2,0.3c0.1,0.1,0.3,0.3,0,0.3C26.4,4.1,21.8,5.1,17.4,4
		c0.6,0.2,0.2,0.3-0.3,0.3c0.3,0.1,0,0.3,0,0.5l-1.9-0.5c-0.3,0.4-2,0-2.2,0.4l0.6-0.1c-0.8,0.5,1.1,1.1,1,1.8
		c0.9-0.6,2.3,0.9,3.7,0.1c0.3,0.1-0.3,0.2-0.1,0.4c0.4-0.3,0.8-0.3,1.6-0.2l-0.1,0.1c2.3-0.1,3.3,0.2,5.8,0.4l-0.2-0.3
		c0.6,0,0.7,0.1,0.9,0.2c0.6-0.5-1.6,0-1-0.6c0.7,0.7,3.9,0,4.4,0.8c0.9,0-0.2-0.4,0.6-0.4l0.2,0.2l0.2-0.3c0.6,0,0.8,0.3,0.9,0.5
		c-0.1,0-0.4,0-0.5,0.1c0.7,0.2,2-0.1,2.3,0l-0.8-0.1C35,7.1,37.8,7.4,40.1,7l-0.2-0.2c1.7-0.3,1.4,0.2,3.3,0.1l-0.1,0
		c0.4-0.1,0.9-0.2,1.4-0.2c-0.5,0.2,0.9,0.4,0.3,0.5C46.6,7,45.7,7,46.9,6.5l0.3,0.3c0.4-0.2,0.5-0.3,1.4-0.4
		c-0.8,0.2,0.6,0.4-0.3,0.7c2,0.6,2.9-0.5,3.8,0.3c0.9-0.7-1.7-0.4-1.2-0.5c-0.4-0.2,0.8-0.5,1.4-0.4c0.6,0,1.1,0.9,2.6,0.9
		c-0.2,0-0.2,0-0.3,0c0.6,0.2,1.2-0.2,1.9,0.1c0.4-0.4,0.9,0,1.1-0.5l-1.5,0.1c0.8-0.1,1.6-0.8,3-0.4c-0.1,0.1-0.5,0.2-0.8,0.3
		c0.4,0.2,0.8-0.1,1.2,0.1c-0.1,0.5-1.8,0.1-2.7,0.5c0.4,0.2,1.7-0.4,1.2,0.2c0.6-0.7,1.6,0.1,2.6-0.5l-0.1,0.3
		c0.2,0,0.5-0.2,0.8-0.2l-0.6,0.4c0.9-0.4,1.7,0.3,2.5,0.1c-1.7,0-0.4-0.4-1.1-0.6c2.2-0.4,1.2,0.9,3.6,0.7c-0.3,0-1.2-0.2-0.7-0.3
		c0.5,0.1,1.1,0.2,1.3,0.4c1.6-0.1-0.2-0.3,0.4-0.5c0.5,0.4,0.8-0.2,1.5-0.3l0,0.3c1.8,0.2,0.5-0.7,2.1-0.4l-0.7,0.5l0.9-0.1
		l-0.2,0.4c0.9-0.3,1.2-0.2,2.1-0.1C72.5,7.4,72.8,7,73.6,7c0.5,0.2-0.3,0.3,0.8,0.3c-0.3,0.2-0.5,0.5-1,0.2
		c-0.1,0.1-0.3,0.2-0.3,0.3C73.7,8,74.6,7.8,75,7.8c-0.2,0-0.3,0-0.4-0.1l1.7-0.4c0.3,0.1,0.1,0.2-0.2,0.3c0.3,0,0.6-0.2,1.1-0.2
		C77,7.6,77,7.9,76.3,8l1.6-0.3c0.1,0.1,0.8,0.3,0.6,0.4c0.9,0.2,2.2-0.5,3.3-0.3c0.1-0.1,0.2-0.1,0.4-0.1c1.1,0.1,2,0.4,3.3,0
		l0.7,0.5c1-0.1-1-0.6,0.7-0.8c1.2-0.1,0.4,0.4,0.9,0.5c0.6-0.2,1.6-0.7,2.7-0.3C90.2,7.8,89.9,7.7,89.6,7.8z M102,7.6
		c-0.2,0.1-0.7,0.3-0.9,0.1C101.4,7.3,101.6,7.5,102,7.6z M121,7c-0.2,0.1-0.5,0.1-0.8-0.1C120.5,6.9,120.7,6.9,121,7z M173.8,5
		C173.8,5,173.8,5,173.8,5C173.2,4.9,173.4,4.9,173.8,5z M174.9,5.2c0.1,0,0.1-0.1,0.1-0.1c-0.1,0.1-0.3,0.1-0.6,0.1
		C174.4,5.2,174.6,5.2,174.9,5.2z M54.8,4.5L55,4.6C54.5,4.7,54.6,4.6,54.8,4.5z"/>
	<path class="st0" d="M118.8,7.4c-0.1-0.1-0.1-0.1-0.1-0.2C118.6,7.3,118.6,7.3,118.8,7.4z"/>
	<path class="st0" d="M81.8,7.9C81.8,7.9,81.8,7.9,81.8,7.9C81.8,7.9,81.7,7.9,81.8,7.9L81.8,7.9z"/>
	<path class="st0" d="M157.6,7.8c-0.2,0-0.4-0.1-0.4-0.2C157.1,7.7,157.2,7.8,157.6,7.8z"/>
	<path class="st0" d="M180.9,4.6l-0.7,0.1c0.3,0,0.5,0.1,0.6,0.1C180.8,4.7,180.6,4.6,180.9,4.6z"/>
	<path class="st0" d="M187.1,6.7c0.1,0,0.2,0,0.3,0l0-0.2C186.9,6.5,186.6,6.6,187.1,6.7z"/>
	<path class="st0" d="M181.5,5.7c0.1,0.3,0.5,0.2,1,0.1c0,0-0.1,0-0.1,0C182.6,5.5,182,5.6,181.5,5.7z"/>
	<path class="st0" d="M182.6,5.9c0.2,0,0.3,0,0.5,0C183.2,5.7,182.9,5.8,182.6,5.9z"/>
	<path class="st0" d="M176.3,5c0.2,0.1,0.2-0.4,0.3-0.2C176.9,4.4,175,5.2,176.3,5z"/>
	<polygon class="st0" points="181.9,6.6 181.7,6.3 181.4,6.6 	"/>
	<path class="st0" d="M177.9,6.4l0.8,0.1c0-0.1,0.1-0.1,0.2-0.1C178.5,6.3,177.9,6.3,177.9,6.4z"/>
	<path class="st0" d="M179,6.3c0.3,0,0.5,0,0.6-0.1C179.5,6.3,179.2,6.3,179,6.3z"/>
	<polygon class="st0" points="180.8,6.7 180.6,6.7 180,6.6 	"/>
	<path class="st0" d="M169.3,6.2l-0.9,0.1c-0.1,0.1,0.1,0.2,0.5,0.1C169.1,6.4,169.5,6.4,169.3,6.2z"/>
	<path class="st0" d="M172,7.2c-0.2-0.1-0.3-0.1-0.4-0.3l0,0.4L172,7.2z"/>
	<path class="st0" d="M169.4,7.3c-0.1,0.1-1.3,0.3-0.2,0.3C169.3,7.5,170.2,7.4,169.4,7.3z"/>
	<polygon class="st0" points="156.2,6.7 156.4,6.7 156.4,6 	"/>
	<path class="st0" d="M144.6,8.2c1,0.2,0.3-0.4,1.2-0.2c0.2-0.2-0.8-0.2-0.5-0.3C144.6,7.9,144.3,7.8,144.6,8.2z"/>
	<path class="st0" d="M145.2,7.7c0.1,0,0.2-0.1,0.3-0.1C145.4,7.7,145.3,7.7,145.2,7.7z"/>
	<polygon class="st0" points="14.1,3.9 13.4,3.8 13.8,4 	"/>
	<path class="st0" d="M12.8,4.4L12.6,4l-0.4,0.4C12.4,4.3,12.7,4.3,12.8,4.4z"/>
	<path class="st0" d="M103.9,8.5l0.1-0.1c-0.1-0.1-0.3-0.1-0.6-0.1L103.9,8.5z"/>
	<polygon class="st0" points="94.8,8.1 95,8.2 94.7,7.7 	"/>
	<path class="st0" d="M87.2,8.6c0.3,0,0.7-0.1,1,0C87.5,8.6,87.2,8.1,87.2,8.6z"/>
</g>
</svg>
